<svg id="Capa_1" enable-background="new 0 0 512 512" height="512" viewBox="0 0 512 512" width="512" xmlns="http://www.w3.org/2000/svg"><g><path d="m440.985 383.406-54.302-69.861c10.999 1.366 21.717-3.342 28.25-12.745 7.49-10.78 7.281-24.562-.551-35.139l-50.72-68.164c4.137-2.118 7.832-5.219 10.73-9.221 7.952-10.981 7.685-25.535-.665-36.217l-118.866-152.059-118.864 152.058c-8.35 10.681-8.618 25.235-.666 36.216 1.941 2.681 4.243 4.952 6.79 6.803l-49.644 72.086c-7.322 10.615-7.184 24.236.35 34.701 5.807 8.066 14.784 12.558 24.267 12.558 2.822 0 11.88-2.185 11.88-2.185l-57.513 69.866c-8.471 10.291-9.216 24.671-1.853 35.781 7.364 11.111 20.897 16.029 33.675 12.238l102.742-30.481v112.359h97.674v-112.359l104.944 31.135c2.954.876 5.925 1.302 8.841 1.302 9.716 0 18.818-4.72 24.605-13.199 7.523-11.024 7.087-24.951-1.104-35.473zm-186.124-334.498 95.134 121.7-95.134-34.314-95.135 34.314zm-137.59 235.357.006-.009 60.765-88.234 76.819-27.708 67.714 24.424 67.621 90.876-135.335-39.064zm156.307 197.615h-37.433v-91.175l18.716-5.553 18.716 5.553v91.175zm-18.717-128.146-160.145 47.511 85.431-103.779 74.715-21.566 83.044 23.97 79.305 102.029z"/></g></svg>