<svg id="Capa_1" enable-background="new 0 0 512 512" height="512" viewBox="0 0 512 512" width="512" xmlns="http://www.w3.org/2000/svg"><g><path d="m217.583 430.084v81.916h74.556v-81.892l-37.318-11.071z"/><path d="m404.289 331.406c-6.459 2.492-13.385 3.825-20.47 3.825-.002 0-.002 0-.003 0-5.456 0-10.91-.777-16.211-2.308l-112.798-32.558-114.95 33.179c-5.272 1.523-10.709 2.296-16.156 2.297h-.005c-5.417 0-10.746-.799-15.854-2.285l-42.867 52.074c-8.769 10.652-9.54 25.538-1.918 37.039 7.623 11.502 21.631 16.592 34.859 12.668l156.905-46.55 159.185 47.227c3.058.907 6.133 1.347 9.152 1.347 10.057 0 19.48-4.886 25.47-13.663 7.788-11.41 7.336-25.826-1.143-36.719z"/><path d="m123.697 306.841c2.685 0 5.414-.379 8.118-1.159l122.992-35.501 120.845 34.881c12 3.465 24.362-.926 31.49-11.185s6.929-23.375-.524-33.441l-32.59-43.799c-7.988 4.044-16.89 6.25-26.022 6.251-6.756 0-13.432-1.172-19.842-3.485l-72.164-26.029-72.166 26.03c-6.407 2.312-13.082 3.483-19.837 3.483-10.976 0-21.61-3.196-30.732-8.933l-32.996 47.912c-6.968 10.102-6.837 23.065.333 33.024 5.527 7.676 14.07 11.951 23.095 11.951z"/><path d="m140.566 181.822c5.624 7.767 14.334 12.066 23.432 12.066 3.325 0 6.702-.574 9.998-1.763l82.004-29.58 82.005 29.578c12.318 4.444 25.75.303 33.429-10.301 7.679-10.605 7.422-24.66-.642-34.976l-114.792-146.846-114.791 146.846c-8.064 10.315-8.323 24.371-.643 34.976z"/></g></svg>